<svg viewBox="0 0 200 200" xmlns="http://www.w3.org/2000/svg">
  <path fill="#7A85FF" d="M33.1,-55.8C44.3,-50.9,55.9,-44.9,65.6,-35.4C75.3,-25.9,83.3,-13,83.9,0.4C84.5,13.7,77.8,27.3,69.8,39.8C61.8,52.3,52.5,63.7,40.7,71.3C28.9,78.9,14.4,82.9,1.1,81C-12.2,79.1,-24.5,71.3,-34.9,62.9C-45.4,54.5,-54,45.3,-58.4,34.7C-62.7,24.1,-62.8,12.1,-62.4,0.2C-62.1,-11.6,-61.2,-23.2,-58.8,-37.2C-56.3,-51.1,-52.2,-67.2,-42.2,-72.9C-32.1,-78.6,-16.1,-73.7,-2.6,-69.3C10.9,-64.9,21.9,-60.8,33.1,-55.8Z" transform="translate(110 100)" />
</svg>