<svg viewBox="0 0 200 200" xmlns="http://www.w3.org/2000/svg">
  <path fill="#8881EA" d="M46.9,-81.2C60.9,-73.2,72.5,-60.9,78.7,-46.6C84.9,-32.4,85.7,-16.2,81.4,-2.5C77.1,11.2,67.7,22.4,57.6,30C47.6,37.6,36.9,41.5,27.2,52.3C17.5,63.1,8.7,80.9,-3.4,86.8C-15.6,92.8,-31.2,86.9,-40.1,75.7C-49.1,64.4,-51.4,47.7,-58.6,34.2C-65.9,20.6,-78.2,10.3,-82.1,-2.3C-86,-14.8,-81.6,-29.7,-72.1,-39.4C-62.6,-49.1,-48.1,-53.7,-35.3,-62.4C-22.4,-71.1,-11.2,-83.9,2.6,-88.4C16.5,-93,32.9,-89.2,46.9,-81.2Z" transform="translate(110 100)" />
</svg>