<svg width="159" height="1024" viewBox="0 0 159 1024" fill="none" xmlns="http://www.w3.org/2000/svg">
<g clip-path="url(#clip0_8_7)">
<path d="M0 0L81.7274 47.5812C104.148 67.0157 139.954 114.233 136.705 171.122C133.456 228.011 151.65 284.748 157.336 341.637C163.022 398.526 134.727 422.273 124.167 479.162C113.608 536.051 103.297 626.081 112.719 682.97C122.223 739.859 140.054 818.262 124.167 869.864C103.536 936.88 67.9571 971.058 44.1214 995.631L0 1024V995.631C0 967.414 0 910.677 0 853.788C0 796.9 0 739.859 0 682.97C0 626.081 0 569.344 0 512.455C0 455.566 0 398.526 0 341.637C0 284.748 0 228.011 0 171.122C0 114.233 0 57.1923 0 28.5203V0Z" fill="#9B78CA"/>
<path d="M0 0L47.8297 45.5707C66.0335 67.0157 109.304 114.233 114.899 171.122C120.494 228.011 106.787 284.748 97.346 341.637C87.9051 398.526 82.7301 455.566 90.7723 512.455C98.8145 569.344 120.074 626.081 120.633 682.97C121.193 739.859 101.192 796.9 95.248 853.788C89.3037 910.677 78.5263 935.539 59.4426 963.016L0 1024V995.631C0 967.414 0 910.677 0 853.788C0 796.9 0 739.859 0 682.97C0 626.081 0 569.344 0 512.455C0 455.566 0 398.526 0 341.637C0 284.748 0 228.011 0 171.122C0 114.233 0 57.1923 0 28.5203V0Z" fill="#917EE4"/>
<path d="M0 0L39.6279 39.5393C57.1175 53.6126 85.7282 125.394 82.338 182.283C78.8741 239.172 110.973 284.748 107.436 341.637C103.824 398.526 68.6884 483.928 69.4991 540.817C70.3835 597.706 101.347 672.242 100.831 729.131C100.389 786.02 75.2477 767.404 69.4991 824.293C63.7505 881.182 35.993 925.487 26.9948 948.942L0 1024V995.631C0 967.414 0 910.677 0 853.788C0 796.9 0 739.859 0 682.97C0 626.081 0 569.344 0 512.455C0 455.566 0 398.526 0 341.637C0 284.748 0 228.011 0 171.122C0 114.233 0 57.1923 0 28.5203V0Z" fill="#7B87FF"/>
</g>
<defs>
<clipPath id="clip0_8_7">
<rect width="159" height="1024" fill="white"/>
</clipPath>
</defs>
</svg>
